<?xml version="1.0" encoding="utf-8"?>
<!-- Generator: Adobe Illustrator 26.3.1, SVG Export Plug-In . SVG Version: 6.00 Build 0)  -->
<svg version="1.1" xmlns="http://www.w3.org/2000/svg" xmlns:xlink="http://www.w3.org/1999/xlink" x="0px" y="0px"
	 viewBox="0 0 500 500" style="enable-background:new 0 0 500 500;" xml:space="preserve">
<style type="text/css">
	.st0{fill:url(#SVGID_1_);}
	.st1{fill:url(#SVGID_00000037668988650299392050000008282621708484353190_);}
	.st2{fill:url(#SVGID_00000146483602111493198030000010797074482662889143_);}
	.st3{fill:url(#SVGID_00000147201345157973169530000017436189323612829886_);}
	.st4{fill:url(#SVGID_00000172426895647776794010000010968081352527584703_);}
	.st5{fill-rule:evenodd;clip-rule:evenodd;fill:#E8A076;}
	.st6{fill-rule:evenodd;clip-rule:evenodd;fill:#AD7553;}
	.st7{fill-rule:evenodd;clip-rule:evenodd;fill:#FDDDC8;}
	.st8{fill-rule:evenodd;clip-rule:evenodd;fill:url(#SVGID_00000181784723788507505720000011323127302485244335_);}
	.st9{fill-rule:evenodd;clip-rule:evenodd;fill:url(#SVGID_00000060718528486768293970000003532913729139454375_);}
	.st10{fill-rule:evenodd;clip-rule:evenodd;fill:url(#SVGID_00000019637177607099020210000011725906603285010838_);}
	.st11{fill-rule:evenodd;clip-rule:evenodd;fill:url(#SVGID_00000065052404068548952140000003238616205064277684_);}
	.st12{fill-rule:evenodd;clip-rule:evenodd;fill:#3E5066;}
	.st13{fill-rule:evenodd;clip-rule:evenodd;fill:#546C8A;}
	.st14{fill-rule:evenodd;clip-rule:evenodd;fill:#FFFFFF;}
	.st15{fill:#1E2630;}
	.st16{fill:#2A3645;}
	.st17{fill-rule:evenodd;clip-rule:evenodd;fill:url(#SVGID_00000034801311275153587560000006564560625740424092_);}
	.st18{fill:#5B9BF5;}
	.st19{fill-rule:evenodd;clip-rule:evenodd;fill:url(#SVGID_00000159445665245497757560000003369203404679383742_);}
	.st20{fill-rule:evenodd;clip-rule:evenodd;fill:url(#SVGID_00000150097315882651756900000013206133741093587329_);}
	.st21{fill-rule:evenodd;clip-rule:evenodd;fill:#597291;}
	.st22{fill-rule:evenodd;clip-rule:evenodd;fill:url(#SVGID_00000104670137576614448860000012814991352037814931_);}
	.st23{fill-rule:evenodd;clip-rule:evenodd;fill:url(#SVGID_00000108277815377483438460000012492360516839112835_);}
	.st24{fill:#B6BBED;}
	.st25{fill:url(#SVGID_00000017481896684926066100000006855320420306643629_);}
	.st26{fill:#FFFFFF;}
	.st27{fill:url(#SVGID_00000158744745959961217240000003164767911863717536_);}
	.st28{opacity:0.4;fill:url(#SVGID_00000053544731118353337310000017239748936483933348_);}
	.st29{opacity:0.4;fill:url(#SVGID_00000106123421597847008190000009705188329049004453_);}
	.st30{fill:none;stroke:#01A1FE;stroke-width:0.5;stroke-linejoin:round;stroke-miterlimit:10;}
	.st31{fill:url(#SVGID_00000064347244843297057860000003222627150681557638_);}
	.st32{fill:#01A1FE;}
	.st33{fill:none;stroke:#01A1FE;stroke-width:0.25;stroke-linecap:round;stroke-linejoin:round;stroke-miterlimit:10;}
	.st34{fill:url(#SVGID_00000096046425535607028530000002697467879012921519_);}
	.st35{fill:url(#SVGID_00000181784419509267313240000002011439480201525377_);}
	.st36{fill:#E6C910;}
	.st37{fill:#4CC248;}
	.st38{fill:#E63C72;}
	.st39{fill:#AAFF80;}
	.st40{fill:#FF5E00;}
	.st41{fill:#FFDC14;}
	.st42{fill:#FF1281;}
	.st43{fill:url(#SVGID_00000127009544124493944020000017964583223906384554_);}
	.st44{fill:url(#SVGID_00000040555297930762569760000016815751234664577443_);}
	.st45{fill:url(#SVGID_00000030459715182760988370000009759830028296777110_);}
	.st46{fill:url(#SVGID_00000160169998954932004260000013569032227305249926_);}
	.st47{fill:url(#SVGID_00000000224142016975166670000008008403836176578476_);}
</style>
<g id="BACKGROUND">
	<g>
		
			<radialGradient id="SVGID_1_" cx="-555.0015" cy="519.3785" r="690.9037" gradientTransform="matrix(1 0 0 1 521 -520.999)" gradientUnits="userSpaceOnUse">
			<stop  offset="0" style="stop-color:#0159A1"/>
			<stop  offset="1" style="stop-color:#030D42"/>
		</radialGradient>
		<rect x="0" class="st0" width="500" height="500"/>
		
			<linearGradient id="SVGID_00000036214909156462305670000000698222021483890102_" gradientUnits="userSpaceOnUse" x1="-124.2299" y1="633.7095" x2="138.7702" y2="276.7098">
			<stop  offset="0" style="stop-color:#4FABFF"/>
			<stop  offset="1" style="stop-color:#4FABFF;stop-opacity:0"/>
		</linearGradient>
		<path style="fill:url(#SVGID_00000036214909156462305670000000698222021483890102_);" d="M181.8,500C78,393.8,105.1,217,0,183.4
			V500H181.8z"/>
		
			<linearGradient id="SVGID_00000149341296695961129450000000896649971497352579_" gradientUnits="userSpaceOnUse" x1="258.5733" y1="349.264" x2="511.4829" y2="5.9611">
			<stop  offset="0" style="stop-color:#4FABFF"/>
			<stop  offset="1" style="stop-color:#4FABFF;stop-opacity:0"/>
		</linearGradient>
		<path style="fill:url(#SVGID_00000149341296695961129450000000896649971497352579_);" d="M500,309.1V0H304.1
			C396.6,83.9,375.2,235.9,500,309.1z"/>
	</g>
</g>
<g id="OBJECTS">
	<g>
		
			<linearGradient id="SVGID_00000039125660852734067100000006259080732679025282_" gradientUnits="userSpaceOnUse" x1="261.5489" y1="356.9312" x2="421.5058" y2="459.0089">
			<stop  offset="0" style="stop-color:#949FD6"/>
			<stop  offset="0.1583" style="stop-color:#9CA6D9"/>
			<stop  offset="0.4025" style="stop-color:#B1B9E1"/>
			<stop  offset="0.7012" style="stop-color:#D5D9EF"/>
			<stop  offset="1" style="stop-color:#FFFFFF"/>
		</linearGradient>
		<polygon style="fill:url(#SVGID_00000039125660852734067100000006259080732679025282_);" points="287.9,359 478.6,469.8 
			445.4,489 254.6,378.2 		"/>
		
			<linearGradient id="SVGID_00000176731826312406773110000011161640759460058766_" gradientUnits="userSpaceOnUse" x1="214.7523" y1="406.715" x2="350.025" y2="493.0403">
			<stop  offset="0" style="stop-color:#949FD6"/>
			<stop  offset="0.1583" style="stop-color:#9CA6D9"/>
			<stop  offset="0.4025" style="stop-color:#B1B9E1"/>
			<stop  offset="0.7012" style="stop-color:#D5D9EF"/>
			<stop  offset="1" style="stop-color:#FFFFFF"/>
		</linearGradient>
		<polygon style="fill:url(#SVGID_00000176731826312406773110000011161640759460058766_);" points="240.8,407.6 207.5,426.8 
			333.4,500 399.7,500 		"/>
	</g>
	<g>
		<path class="st5" d="M328.4,216.6c0,0,9.8,2.2,10.1,10.9c0.3,8.7-3.1,41-3.2,42.8c-0.1,1.8-4.6,3.3-5.7,2.7L328.4,216.6z"/>
		<path class="st6" d="M323.1,217.5c0,0,13.4,0.4,12.7,13.2c-0.7,12.7-3,43-3.7,46.2c-0.7,3.2-10.7,6.7-16.8,2L323.1,217.5z"/>
		<g>
			<path class="st7" d="M235.1,143.7c0,0-0.5-4.3-0.7-5.7c-0.2-1.5-1.3-4.8-1.6-7c-0.3-2.2-0.1-6.1-1.1-6.3
				c-1.1-0.2-2.6,2.2-2.6,4.7c0,2.4,0.5,5.3,0.5,6.7c0,1.4-0.5,2.7-0.5,2.7s-8.2-1.9-8.6-1.1c-0.4,0.9,1.4,6,0.5,8.3
				c-0.9,2.3-0.3,6.4,0.7,8.1c1.1,1.6,3.2,2.2,3.8,2.7c0.6,0.5,12.8,10.7,18.8,16.1c6,5.4,9.3,6.3,12.6,7.2c3.3,0.9,5.5,2,6.9,1.4
				c1.4-0.6,11.6-14.8,11.6-14.8l-13.4-12.4l-4.4,5.2c-3.2-2.3-19.3-4.1-21.3-6.9c0,0,2.7-4.1,3-6.2c0.2-2,0.7-3.2,1.4-4.6
				c0.7-1.4,0.6-2.6-0.2-2.7C239.7,138.8,236,139.1,235.1,143.7z"/>
			
				<linearGradient id="SVGID_00000034788768154794214360000017040463317452449697_" gradientUnits="userSpaceOnUse" x1="230.5061" y1="158.3596" x2="241.4923" y2="154.1173">
				<stop  offset="0" style="stop-color:#FBD1BE"/>
				<stop  offset="1" style="stop-color:#F8B4A8"/>
			</linearGradient>
			<path style="fill-rule:evenodd;clip-rule:evenodd;fill:url(#SVGID_00000034788768154794214360000017040463317452449697_);" d="
				M236.2,152.3c0,0-2,2.4-5.3,3.3c0,0,9.8,1,15.6,0.4C241.8,154.9,237.2,153.7,236.2,152.3z"/>
			
				<linearGradient id="SVGID_00000010996305093594966650000004165392341212457881_" gradientUnits="userSpaceOnUse" x1="252.4767" y1="165.5183" x2="267.5545" y2="163.549">
				<stop  offset="0" style="stop-color:#FBD1BE"/>
				<stop  offset="1" style="stop-color:#F8B4A8"/>
			</linearGradient>
			<path style="fill-rule:evenodd;clip-rule:evenodd;fill:url(#SVGID_00000010996305093594966650000004165392341212457881_);" d="
				M275.3,166.5l-13.4-12.4l-3.4,4.1c3.2,3.2,9.3,9.7,11.7,15.3C272.8,169.9,275.3,166.5,275.3,166.5z"/>
			
				<linearGradient id="SVGID_00000044157539842471254810000000584850293801637052_" gradientUnits="userSpaceOnUse" x1="218.9187" y1="142.099" x2="230.5877" y2="142.099">
				<stop  offset="0" style="stop-color:#FBD1BE"/>
				<stop  offset="1" style="stop-color:#F8B4A8"/>
			</linearGradient>
			<path style="fill-rule:evenodd;clip-rule:evenodd;fill:url(#SVGID_00000044157539842471254810000000584850293801637052_);" d="
				M229.4,137.4c0,0-0.4-1.3-2-1.6c-1.6-0.3-4.4-0.2-6.2,0c-1.8,0.2-2.4,3-2.3,6.1c0.1,3.1,0.6,5.4,1.5,5.8c0.9,0.4,5.7,0.9,7.5,1
				c1.8,0.1,2.6-0.7,2.7-2.5C230.7,144.3,229.4,137.4,229.4,137.4z"/>
			
				<linearGradient id="SVGID_00000123435824333942579600000009716589354327091608_" gradientUnits="userSpaceOnUse" x1="257.5668" y1="132.4825" x2="272.7966" y2="141.2907">
				<stop  offset="0" style="stop-color:#FFFFFF"/>
				<stop  offset="1.422089e-02" style="stop-color:#FEFEFF"/>
				<stop  offset="0.6116" style="stop-color:#E9ECFB"/>
				<stop  offset="1" style="stop-color:#E1E5FA"/>
			</linearGradient>
			<path style="fill-rule:evenodd;clip-rule:evenodd;fill:url(#SVGID_00000123435824333942579600000009716589354327091608_);" d="
				M279.3,118.5c-1.5,1.2-19.8,34.8-19.8,34.8s12,8.3,14.6,16.8h2.9l5-51.7L279.3,118.5z"/>
		</g>
		<g>
			<g>
				<path class="st12" d="M271.7,349.2c0,0-9.2,9.6-12.6,12.3c-3.4,2.7-7.1,6.1-7.9,8.6c-0.9,2.5-0.8,3.9-0.6,4.4
					c0.2,0.5,2.6,3.8,8,4.6c5.3,0.8,8-0.8,11-2.5c3-1.7,13.2-7.5,15.3-9c2.2-1.5,5.1-3.1,5.2-5.6c0.2-2.5-1.5-13-1.5-13L271.7,349.2
					z"/>
				<path class="st13" d="M258.6,361.9c0,0,1.4-0.1,2-0.2c0.6-0.1,1.2-0.3,2.1-1.2c0.9-0.9,10.1-10,10.1-10l-2.7-0.5L258.6,361.9z"
					/>
				<path class="st13" d="M258.1,362.3c-3.1,2.6-6.2,5.6-7,7.9c-0.2,0.6-0.4,1.2-0.5,1.7c1.8,2.1,7.2,5.5,10.9,4.7
					c4.4-1,8.4-4.2,8.4-4.2C266,362.4,258.1,362.3,258.1,362.3z"/>
				<path class="st13" d="M270.2,373c0,0-1.9-4.8-3.7-8c-0.9-1.7,0.3-3,2.4-5.1c2.6-2.6,8.6-8.6,8.6-8.6l11.2-1.6
					c0,0,1.2,6.6,1.1,9.1C289.9,358.9,285.9,366.4,270.2,373z"/>
				<path class="st14" d="M284.8,363.5c-2.2,1.5-12.3,7.3-15.3,9c-3,1.7-5.7,3.3-11,2.5c-4.2-0.6-6.7-2.8-7.6-4
					c-0.7,2-0.5,3.3-0.3,3.8c0.2,0.5,2.6,3.8,8,4.6c5.3,0.8,8-0.8,11-2.5c3-1.7,13.2-7.5,15.3-9c2.2-1.5,5.1-3.1,5.2-5.6
					c0-0.7,0-2-0.2-3.5C289.1,360.8,286.7,362.2,284.8,363.5z"/>
				<g>
					<path class="st14" d="M269.1,362.3c-2.5-3.5-6.1-3.6-6.1-3.6l-1.7,1.6c0,0,3.7,0.2,6.3,3.7L269.1,362.3z"/>
					<path class="st14" d="M271.6,359.8c-2.5-3.5-6.1-3.6-6.1-3.6l-1.7,1.6c0,0,3.7,0.2,6.3,3.7L271.6,359.8z"/>
					<path class="st14" d="M274,357.3c-2.5-3.5-6.1-3.6-6.1-3.6l-1.7,1.6c0,0,3.7,0.2,6.3,3.7L274,357.3z"/>
					<path class="st14" d="M276.5,354.8c-2.5-3.5-6.1-3.6-6.1-3.6l-1.7,1.6c0,0,3.7,0.2,6.3,3.7L276.5,354.8z"/>
				</g>
			</g>
			<path class="st15" d="M270,207.9c-1.2,2.5-0.9,75.2-0.9,79.1c-0.1,7.2,0.2,63.7,0.2,63.7s3.5,2.8,10.5,3.2c7,0.4,9.4-2.2,9.4-2.2
				s3.4-36.3,4.7-46.7c0.6-4.5,1.3-21,1.4-24.3c0,0,7.7-31.7,9.8-55.7c0.2-2.6,1.3-16.1-2-21.3C286.5,207.7,270,207.9,270,207.9z"/>
		</g>
		<g>
			<g>
				<path class="st12" d="M296.8,363.6c0,0-9.2,9.6-12.6,12.3c-3.4,2.7-7.1,6.1-7.9,8.6c-0.9,2.5-0.8,3.9-0.6,4.4
					c0.2,0.5,2.6,3.8,8,4.6c5.3,0.8,8-0.8,11-2.5c3-1.7,13.2-7.5,15.3-9c2.2-1.5,5.1-3.1,5.2-5.6c0.2-2.5-1.5-13-1.5-13L296.8,363.6
					z"/>
				<path class="st13" d="M283.7,376.3c0,0,1.4-0.1,2-0.2c0.6-0.1,1.2-0.3,2.1-1.2c0.9-0.9,10.1-10,10.1-10l-2.7-0.5L283.7,376.3z"
					/>
				<path class="st13" d="M283.3,376.7c-3.1,2.6-6.2,5.6-7,7.9c-0.2,0.6-0.4,1.2-0.5,1.7c1.8,2.1,7.2,5.5,10.9,4.7
					c4.5-1,8.4-4.2,8.4-4.2C291.1,376.8,283.3,376.7,283.3,376.7z"/>
				<path class="st13" d="M295.3,387.5c0,0-1.9-4.8-3.7-8c-0.9-1.7,0.3-3,2.4-5.1c2.6-2.6,8.6-8.6,8.6-8.6l11.2-1.6
					c0,0,1.2,6.6,1.1,9.1C315,373.3,311,380.9,295.3,387.5z"/>
				<path class="st14" d="M310,377.9c-2.2,1.5-12.3,7.3-15.3,9c-3,1.7-5.7,3.3-11,2.5c-4.2-0.6-6.7-2.8-7.6-4
					c-0.7,2-0.5,3.3-0.3,3.8c0.2,0.5,2.6,3.8,8,4.6c5.3,0.8,8-0.8,11-2.5c3-1.7,13.2-7.5,15.3-9c2.2-1.5,5.1-3.1,5.2-5.6
					c0-0.7,0-2-0.2-3.5C314.3,375.3,311.8,376.6,310,377.9z"/>
				<g>
					<path class="st14" d="M294.2,376.7c-2.5-3.5-6.1-3.6-6.1-3.6l-1.7,1.6c0,0,3.7,0.2,6.3,3.7L294.2,376.7z"/>
					<path class="st14" d="M296.7,374.2c-2.5-3.5-6.1-3.6-6.1-3.6l-1.7,1.6c0,0,3.7,0.2,6.3,3.7L296.7,374.2z"/>
					<path class="st14" d="M299.2,371.7c-2.5-3.5-6.1-3.6-6.1-3.6l-1.7,1.6c0,0,3.7,0.2,6.3,3.7L299.2,371.7z"/>
					<path class="st14" d="M301.6,369.2c-2.5-3.5-6.1-3.6-6.1-3.6l-1.7,1.6c0,0,3.7,0.2,6.3,3.7L301.6,369.2z"/>
				</g>
			</g>
			<path class="st16" d="M287.7,222.5c-1,2.6,3.1,75.2,3.2,79.1c0.3,7.2,3.5,63.6,3.5,63.6s3.6,2.7,10.6,2.7c7,0,9.3-2.7,9.3-2.7
				s1.5-36.4,2.3-46.9c0.3-4.5,0.2-21,0.2-24.3c0,0,6-32.1,6.9-56.1c0.1-2.6,0.4-16.2-3.1-21.2C304.2,221.5,287.7,222.5,287.7,222.5
				z"/>
		</g>
		
			<linearGradient id="SVGID_00000042714930119616450820000011160252171188166333_" gradientUnits="userSpaceOnUse" x1="297.9064" y1="129.664" x2="302.8704" y2="187.3697">
			<stop  offset="0" style="stop-color:#FFFFFF"/>
			<stop  offset="1.422089e-02" style="stop-color:#FEFEFF"/>
			<stop  offset="0.6116" style="stop-color:#E9ECFB"/>
			<stop  offset="1" style="stop-color:#E1E5FA"/>
		</linearGradient>
		<path style="fill-rule:evenodd;clip-rule:evenodd;fill:url(#SVGID_00000042714930119616450820000011160252171188166333_);" d="
			M310.2,119.1c0,0,13.1,7.7,17.3,11.3c6.1,5.2,7.9,9.7,7,20.1c-0.9,10.4-10.5,37.3-11.3,45.7c-0.8,8.4,0.5,23.2-0.4,25.3
			c-0.9,2.2-11.5,12-26.6,8.6c-15.1-3.3-26.7-11-26.7-16.8c-0.1-5.8,3-39,3-48.3c0-9.3,1-33,3.2-39.8c2.2-6.8,5.5-11.1,13.8-9.3
			C297.8,117.8,310.2,119.1,310.2,119.1z"/>
		<path class="st18" d="M323.3,195.6c0,0.2-0.1,0.4-0.1,0.6c0,0.2,0,0.5-0.1,0.7c-20.4-1.6-34.5-7.3-43.4-12.6
			c-3.1-1.8-5.7-3.7-7.9-5.4c0-0.6,0.1-1.2,0.1-1.8C280.9,184.4,297.1,193.6,323.3,195.6z M272.4,169.5c0,0.6-0.1,1.2-0.1,1.8
			c2.4,2,5.4,4.1,8.9,6.3c8.9,5.3,22.9,11,43.2,12.6c0.1-0.4,0.2-0.9,0.3-1.3C297.6,186.8,281.1,177,272.4,169.5z M287.1,150.7
			c9.1,5.4,23.7,11.4,44.8,12.8c0.1-0.5,0.2-0.9,0.4-1.3c-33.9-2.2-51.5-16.3-58.4-23.7c-0.1,0.6-0.1,1.2-0.2,1.9
			C276.5,143.2,280.9,147,287.1,150.7z M272.6,161.7c0,0.7,0,1.3,0,1.9c2.6,2.3,6,4.8,10.2,7.3c8.9,5.3,23.1,11.1,43.5,12.7
			c0.1-0.4,0.2-0.9,0.4-1.3C297.7,180,281,169.2,272.6,161.7z M322.9,203.8c0-0.5,0-0.9,0-1.4c-25.9-1.8-42.2-10.5-51.5-17.8
			c0,0.6-0.1,1.1-0.1,1.7c2,1.5,4.3,3.1,7,4.7C287.4,196.4,301.9,202.3,322.9,203.8z M272.8,153.8c0,0.6-0.1,1.3-0.1,1.9
			c2.8,2.6,6.6,5.5,11.4,8.4c9,5.3,23.3,11.2,43.9,12.7c0.1-0.4,0.3-0.9,0.4-1.3C297.9,173.3,280.8,161.4,272.8,153.8z M285.6,157.4
			c9.1,5.4,23.5,11.3,44.4,12.7c0.1-0.4,0.3-0.9,0.4-1.3c-32.3-2.2-49.7-15.2-57.2-22.8c0,0.6-0.1,1.3-0.1,1.9
			C276,150.7,280.1,154.1,285.6,157.4z"/>
		<path class="st5" d="M319.1,227.5c-48.7-29.6-35.9-111.7-35.9-111.7h5.5c0,0-13.1,76.7,35.6,106.3L319.1,227.5z"/>
		
			<linearGradient id="SVGID_00000079445191578231548590000018234235429159871884_" gradientUnits="userSpaceOnUse" x1="337.9062" y1="198.8663" x2="228.5796" y2="180.6831">
			<stop  offset="0" style="stop-color:#E9EBF5"/>
			<stop  offset="0.5454" style="stop-color:#D9DDF2"/>
			<stop  offset="1" style="stop-color:#D1D6F0"/>
		</linearGradient>
		<path style="fill-rule:evenodd;clip-rule:evenodd;fill:url(#SVGID_00000079445191578231548590000018234235429159871884_);" d="
			M332.6,160.8h-14.9c0,0-11.8,35.7-12.1,70c10-1.1,16.6-7.5,17.3-9.1c0.9-2.2-0.4-17,0.4-25.3C323.8,189.9,329.4,173.1,332.6,160.8
			z"/>
		<g>
			<path class="st7" d="M307.9,106.6c0,0-0.3,4.4,0.2,7.5c0.3,2,1.6,4.4,3,6.2c0.7,1,0.8,5.5-2.6,8.3c-4,3.3-9.8,6.6-14.9,6.4
				c-1.9-0.2-5.6-0.3-5.9-3.2c0-0.7,0-1.4,0.2-2.1c0.8-3.8,1.2-8.7,0.8-13.9L307.9,106.6z"/>
			
				<linearGradient id="SVGID_00000164500253971232702690000016658881135254705802_" gradientUnits="userSpaceOnUse" x1="310.1661" y1="120.3964" x2="292.6404" y2="117.9318">
				<stop  offset="0" style="stop-color:#FBD1BE"/>
				<stop  offset="1" style="stop-color:#F8B4A8"/>
			</linearGradient>
			<path style="fill-rule:evenodd;clip-rule:evenodd;fill:url(#SVGID_00000164500253971232702690000016658881135254705802_);" d="
				M308,113.7c-0.4-3.1-0.1-7.1-0.1-7.1L289,116c0.5,5-0.2,9.5-1,13.2c0.5,1,1.3,1.8,2.8,1.8C294.6,131,302.2,124.2,308,113.7z"/>
			<path class="st7" d="M288.4,72.8c-6.2,4.1-8.5,10.4-8.8,15.5c-0.3,5.1,0,6.9-0.6,9.6c-0.6,2.7-0.5,7.4,0,11
				c0.5,3.5,2.5,8.7,2.9,9.5c0.4,0.8,2.7,2,5.6,1.8c2.9-0.2,13.9-4.4,16.5-6.4c2.7-2,4.7-7.2,4.7-7.2s6.3-4.2,8.6-13.3
				c2.2-9-4-21-11.8-22.5C297.7,69.3,290.7,71.3,288.4,72.8z"/>
			<path class="st21" d="M284.4,91.3c0,0-6.1-1.1-9.2-9.9h2.4c0,0-1.5-5.8-1.3-10.2l7.4,1.3l-1.3-3.4c0,0,3.3,0.3,8.7,0
				c5.4-0.3,17.1-2.4,22.3,1.8c5.2,4.2,5.1,10.1,5.1,10.1s2.3,4.7,1.3,10.2c-0.9,5.5-10.5,16.1-10.5,16.1l-2.9-7.1l-1,3.7l-0.9-0.4
				c0,0-0.1-4.8-0.2-5.3c-0.1-0.5-1.6-1.7-1.8-2.8c-0.1-1.1,0.4-3.7-0.9-4C300.3,91.3,287.2,91.8,284.4,91.3z"/>
			<path class="st7" d="M306.5,100.3c0,0,2.2-5.2,4.9-3.7c2.8,1.4,2.3,8.6-3.5,11.7h-1.5V100.3z"/>
		</g>
		<g>
			<path class="st7" d="M319.8,181.8l0.6,11.4c0,0-1.5,10.8-2.3,18.2c-0.8,7.3-4.9,29.2-5.4,30.6c-0.5,1.4-4.9,5.6-5.7,7.7
				c-0.8,2.1-0.5,3.4-0.9,5.3c-0.3,1.9-1.6,5.3-0.8,5.3c0.8,0.1,3.2-0.7,3.8-3.1c0.6-2.4,1-3.3,1.3-3.2c0.2,0.1,0.9,6.3,0.8,7.7
				c-0.1,1.5-1.5,6.1-2,7.3c-0.5,1.2-1,4.4,0.1,5.1c1,0.7,1.5,0.1,1.6,0c0.1-0.1,2.4-4.9,3.2-6.6c2-1.2,2.8-1.4,3.4-1.9
				c0.6-0.5,1.3-1.3,1.3-1.3s2.6-0.4,2.9-1c0.3-0.6,0.6-1.1,0.6-1.1s1.7-0.5,2.3-1.6c0.6-1.1,0.7-3.5,0.9-4.8
				c0.2-1.3-0.7-10.5-0.6-11.9c0.1-1.4,13-47.8,13.4-50.7c0.5-3,0.9-11.4,0.9-11.4H319.8z"/>
			
				<linearGradient id="SVGID_00000172441278929821229330000011801075371961203074_" gradientUnits="userSpaceOnUse" x1="342.2836" y1="188.7284" x2="323.4297" y2="186.0771">
				<stop  offset="0" style="stop-color:#FBD1BE"/>
				<stop  offset="1" style="stop-color:#F8B4A8"/>
			</linearGradient>
			<path style="fill-rule:evenodd;clip-rule:evenodd;fill:url(#SVGID_00000172441278929821229330000011801075371961203074_);" d="
				M320.4,191.6c3.1,0.8,11,2.7,17.8,1.9c0-0.1,0.1-0.2,0.1-0.3c0.5-3,0.9-11.4,0.9-11.4h-19.4L320.4,191.6z"/>
			
				<linearGradient id="SVGID_00000131359501544266185390000017944868655206805695_" gradientUnits="userSpaceOnUse" x1="325.8408" y1="139.7562" x2="328.2283" y2="167.5105">
				<stop  offset="0" style="stop-color:#FFFFFF"/>
				<stop  offset="1.422089e-02" style="stop-color:#FEFEFF"/>
				<stop  offset="0.6116" style="stop-color:#E9ECFB"/>
				<stop  offset="1" style="stop-color:#E1E5FA"/>
			</linearGradient>
			<path style="fill-rule:evenodd;clip-rule:evenodd;fill:url(#SVGID_00000131359501544266185390000017944868655206805695_);" d="
				M329.6,132.4c-3.1-1.6-10.8,10.1-11.9,27c-1.1,16.9,0,28.3,0,28.3s14.6,2.4,24.3-1.9c0,0-2.4-26.1-3.9-35.6
				C336.6,140.8,332.3,133.7,329.6,132.4z"/>
		</g>
	</g>
	<g>
		<path class="st24" d="M254.6,416.9c0-0.1,0-0.1,0-0.2V240.4h-2.8c-0.2-0.2-0.5-0.3-0.7-0.5l-38.3-22.1c-4.6-2.7-12.1-2.7-16.7,0
			l-18.2,10.6c-0.3,0.1-0.5,0.3-0.7,0.5h-2.7v176.6h0c0.1,1.7,1.2,3.4,3.5,4.7l38.3,22.1c4.6,2.7,12.1,2.7,16.7,0l18.2-10.6
			C253.4,420.4,254.6,418.7,254.6,416.9L254.6,416.9L254.6,416.9z"/>
		
			<linearGradient id="SVGID_00000098203106714917218420000000835466486874493104_" gradientUnits="userSpaceOnUse" x1="186.9269" y1="314.86" x2="275.1965" y2="345.188">
			<stop  offset="0" style="stop-color:#EDEEFC"/>
			<stop  offset="1" style="stop-color:#CED2F7"/>
		</linearGradient>
		<path style="fill:url(#SVGID_00000098203106714917218420000000835466486874493104_);" d="M254.6,416.3c0-0.1,0-0.1,0-0.2V239.7
			h-2.8c-0.2-0.2-0.5-0.3-0.7-0.5l-38.3-22.1c-4.6-2.7-12.1-2.7-16.7,0l-18.2,10.6c-0.3,0.1-0.5,0.3-0.7,0.5h-2.7v176.6h0
			c0.1,1.7,1.2,3.4,3.5,4.7l38.3,22.1c4.6,2.7,12.1,2.7,16.7,0l18.2-10.6C253.4,419.7,254.6,418,254.6,416.3L254.6,416.3
			L254.6,416.3z"/>
		<path class="st26" d="M251.1,238.4l-38.3-22.1c-4.6-2.7-12.1-2.7-16.7,0l-18.2,10.6c-0.3,0.1-0.5,0.3-0.7,0.5h-2.7v0.8h0
			c0.1,1.7,1.2,3.4,3.5,4.7l38.3,22.1c4.6,2.7,12.1,2.7,16.7,0l18.2-10.6c2.2-1.3,3.4-3,3.4-4.7l0,0v0v-0.2v-0.6h-2.8
			C251.6,238.7,251.4,238.5,251.1,238.4z"/>
		
			<linearGradient id="SVGID_00000090974619364382321710000002786225645906056092_" gradientUnits="userSpaceOnUse" x1="169.0322" y1="217.9254" x2="229.1669" y2="237.9702">
			<stop  offset="0" style="stop-color:#F7FAFF"/>
			<stop  offset="1" style="stop-color:#E6ECFF"/>
		</linearGradient>
		<path style="fill:url(#SVGID_00000090974619364382321710000002786225645906056092_);" d="M251.1,234l-38.3-22.1
			c-4.6-2.7-12.1-2.7-16.7,0l-18.2,10.6c-4.6,2.7-4.6,7,0.1,9.7l38.3,22.1c4.6,2.7,12.1,2.7,16.7,0l18.2-10.6
			C255.8,241,255.8,236.7,251.1,234z"/>
	</g>
	<g>
		<g>
			
				<linearGradient id="SVGID_00000142860847148158744940000005143896634663748519_" gradientUnits="userSpaceOnUse" x1="219.7739" y1="166.1742" x2="128.7736" y2="339.1747">
				<stop  offset="0" style="stop-color:#4FABFF"/>
				<stop  offset="1" style="stop-color:#4FABFF;stop-opacity:0"/>
			</linearGradient>
			<polygon style="opacity:0.4;fill:url(#SVGID_00000142860847148158744940000005143896634663748519_);" points="131,135.8 
				133,135.6 133.2,88.9 131.1,86.3 131.2,50.9 134.5,49 202,88 204.3,91.7 238.8,111.6 241,110.5 308.6,149.5 311.8,155.2 
				311.7,190.5 309.7,190.8 309.5,237.5 311.6,240.1 311.5,275.5 308.2,277.4 240.6,238.4 238.4,234.7 229.1,229.3 213.3,220.2 
				203.9,214.8 201.7,215.9 134.1,176.9 130.9,171.2 			"/>
			
				<linearGradient id="SVGID_00000133518813402937265270000007339502895339204010_" gradientUnits="userSpaceOnUse" x1="216.4204" y1="129.0561" x2="182.4205" y2="226.7229">
				<stop  offset="0" style="stop-color:#4FABFF"/>
				<stop  offset="1" style="stop-color:#4FABFF;stop-opacity:0"/>
			</linearGradient>
			<polygon style="opacity:0.4;fill:url(#SVGID_00000133518813402937265270000007339502895339204010_);" points="134.5,49 202,88 
				204.3,91.7 238.8,111.6 241,110.5 308.6,149.5 311.8,155.2 311.8,178.2 131.1,73.9 131.2,50.9 			"/>
			<line class="st30" x1="311.8" y1="178.2" x2="131.1" y2="73.9"/>
			<polygon class="st30" points="131,135.8 133,135.6 133.2,88.9 131.1,86.3 131.2,50.9 134.5,49 202,88 204.3,91.7 238.8,111.6 
				241,110.5 308.6,149.5 311.8,155.2 311.7,190.5 309.7,190.8 309.5,237.5 311.6,240.1 311.5,275.5 308.2,277.4 240.6,238.4 
				238.4,234.7 229.1,229.3 213.3,220.2 203.9,214.8 201.7,215.9 134.1,176.9 130.9,171.2 			"/>
		</g>
		<g>
			
				<linearGradient id="SVGID_00000048464974485749781120000007269918790998076327_" gradientUnits="userSpaceOnUse" x1="293.2189" y1="259.5488" x2="294.3302" y2="239.3918">
				<stop  offset="0" style="stop-color:#FE38C0"/>
				<stop  offset="1" style="stop-color:#FE38C0;stop-opacity:0.3"/>
			</linearGradient>
			<path style="fill:url(#SVGID_00000048464974485749781120000007269918790998076327_);" d="M299.3,239.1l0-2.2l-10.8-6.2l0,2.2
				c0,1.7,0.8,3.2,2.1,5.5c1.4,2.5,3.1,5.5,3.1,8.9c0,3.4-1.7,4.4-3.1,5.3c-1.3,0.8-2.2,1.4-2.2,3.1l0,2.2l10.8,6.2l0-2.2
				c0-1.7-0.8-3.2-2.1-5.5c-1.4-2.5-3.1-5.5-3.1-8.9c0-3.4,1.8-4.5,3.2-5.3C298.5,241.3,299.3,240.7,299.3,239.1z"/>
			<path class="st32" d="M299.5,243.8c0.9-0.7,1.7-1.7,1.7-3.7l0-4.1c0-0.1,0-0.2-0.1-0.2c0-0.1-0.1-0.1-0.2-0.2l-14.1-8.2
				c-0.1,0-0.1,0-0.2,0c0,0-0.1,0.1-0.1,0.2l0,4.1c0,1.3,0.3,2.6,0.9,3.8c0.8,1.8,1.9,3.6,2.8,5.3c0.9,1.7,1.6,3.4,1.6,5.3
				c0,1.2-0.3,2-0.8,2.7c-0.7,0.9-1.8,1.4-2.8,2.1c-0.9,0.7-1.7,1.7-1.7,3.7l0,4.1c0,0.1,0,0.2,0.1,0.2c0,0.1,0.1,0.1,0.2,0.2
				l14.1,8.2c0.1,0,0.1,0,0.2,0c0,0,0.1-0.1,0.1-0.2l0-4.1c0-1.3-0.3-2.6-0.9-3.8c-0.8-1.9-1.9-3.6-2.8-5.3
				c-0.9-1.7-1.6-3.4-1.6-5.3c0-1.2,0.3-2,0.8-2.7C297.4,245,298.5,244.5,299.5,243.8z M295.4,248.2c0,1.4,0.3,2.7,0.9,3.9
				c0.8,1.9,1.9,3.6,2.8,5.4c0.9,1.7,1.6,3.4,1.6,5.2l0,3.8l-13.6-7.9l0-3.8c0-1.2,0.3-2,0.8-2.6c0.7-0.9,1.8-1.3,2.8-2
				c0.9-0.7,1.7-1.7,1.7-3.8c0-1.4-0.3-2.7-0.9-3.9c-0.8-1.9-1.9-3.6-2.8-5.4c-0.9-1.7-1.6-3.4-1.6-5.2l0-3.8l13.6,7.9l0,3.8
				c0,1.2-0.3,2-0.8,2.6c-0.7,0.9-1.8,1.3-2.8,2C296.2,245.2,295.4,246.2,295.4,248.2z"/>
		</g>
		<g>
			<line class="st33" x1="142.6" y1="168.3" x2="249.3" y2="229.9"/>
			<g>
				<polygon class="st32" points="141.5,163.5 142.8,164.2 142.8,150.9 141.5,150.2 				"/>
				<polygon class="st32" points="145,165.5 146.3,166.3 146.3,158.4 145,157.7 				"/>
				<polygon class="st32" points="148.5,167.5 149.8,168.3 149.9,153.8 148.5,153 				"/>
				<polygon class="st32" points="152,169.6 153.4,170.3 153.4,151.6 152.1,150.8 				"/>
				<polygon class="st32" points="155.6,171.6 156.9,172.4 156.9,169.8 155.6,169 				"/>
				<polygon class="st32" points="247.3,200.6 247.3,224.6 248.6,225.3 248.7,201.4 				"/>
				<polygon class="st32" points="243.8,222.5 245.1,223.3 245.1,208.8 243.8,208 				"/>
				<polygon class="st32" points="240.2,220.5 241.5,221.2 241.6,212.9 240.2,212.1 				"/>
				<polygon class="st32" points="236.7,218.4 238,219.2 238.1,204.7 236.7,204 				"/>
				<polygon class="st32" points="233.2,216.4 234.5,217.2 234.5,207.3 233.2,206.5 				"/>
				<polygon class="st32" points="229.6,214.4 231,215.1 231,196.4 229.7,195.6 				"/>
				<polygon class="st32" points="226.1,212.3 227.4,213.1 227.5,201.1 226.2,200.4 				"/>
				<polygon class="st32" points="222.6,210.3 223.9,211.1 224,189.1 222.7,188.4 				"/>
				<polygon class="st32" points="219.1,208.3 220.4,209 220.4,199.1 219.1,198.4 				"/>
				<polygon class="st32" points="215.5,206.2 216.9,207 216.9,195 215.6,194.3 				"/>
				<polygon class="st32" points="212,204.2 213.3,204.9 213.4,189.3 212,188.6 				"/>
				<polygon class="st32" points="208.5,202.2 209.8,202.9 209.8,194.5 208.5,193.8 				"/>
				<polygon class="st32" points="204.9,200.1 206.3,200.9 206.3,182.2 205,181.4 				"/>
				<polygon class="st32" points="201.4,198.1 202.7,198.8 202.8,191.6 201.4,190.8 				"/>
				<polygon class="st32" points="197.9,196 199.2,196.8 199.2,189 197.9,188.2 				"/>
				<polygon class="st32" points="194.4,194 195.7,194.8 195.7,184.9 194.4,184.1 				"/>
				<polygon class="st32" points="190.8,192 192.2,192.7 192.2,179.4 190.9,178.7 				"/>
				<polygon class="st32" points="187.3,189.9 188.6,190.7 188.7,174 187.4,173.2 				"/>
				<polygon class="st32" points="183.8,187.9 185.1,188.7 185.1,178.8 183.8,178 				"/>
				<polygon class="st32" points="180.3,185.9 181.6,186.6 181.6,180.6 180.3,179.9 				"/>
				<polygon class="st32" points="176.7,183.8 178,184.6 178.1,175.2 176.8,174.5 				"/>
				<polygon class="st32" points="173.2,181.8 174.5,182.5 174.5,172.9 173.2,172.2 				"/>
				<polygon class="st32" points="169.7,179.7 171,180.5 171,172.7 169.7,171.9 				"/>
				<polygon class="st32" points="166.1,177.7 167.5,178.5 167.5,168 166.2,167.2 				"/>
				<polygon class="st32" points="162.6,175.7 163.9,176.4 164,162.9 162.7,162.1 				"/>
				<polygon class="st32" points="159.1,173.6 160.4,174.4 160.4,166.5 159.1,165.8 				"/>
			</g>
		</g>
		
			<linearGradient id="SVGID_00000097489635799774057320000009460357888952277894_" gradientUnits="userSpaceOnUse" x1="141.4946" y1="110.5889" x2="187.9941" y2="110.5889">
			<stop  offset="0" style="stop-color:#01FEAA"/>
			<stop  offset="1" style="stop-color:#01FEAA;stop-opacity:0.3"/>
		</linearGradient>
		<polygon style="fill:url(#SVGID_00000097489635799774057320000009460357888952277894_);" points="141.5,98.8 188,125.7 188,122.4 
			141.5,95.5 		"/>
		
			<linearGradient id="SVGID_00000103263478312449257750000016205555496991428536_" gradientUnits="userSpaceOnUse" x1="141.4946" y1="98.9722" x2="169.7471" y2="98.9722">
			<stop  offset="0" style="stop-color:#FE38C0"/>
			<stop  offset="1" style="stop-color:#FE38C0;stop-opacity:0.3"/>
		</linearGradient>
		<polygon style="fill:url(#SVGID_00000103263478312449257750000016205555496991428536_);" points="169.7,105.5 141.5,89.2 
			141.5,92.5 169.7,108.8 		"/>
		<g>
			<path class="st36" d="M168.1,78.4c1.8,1.1,3.3,3.7,3.3,5.8c0,2.1-1.5,3-3.4,1.9c-1.8-1.1-3.3-3.6-3.3-5.8
				C164.7,78.2,166.2,77.3,168.1,78.4z"/>
			<path class="st37" d="M155.6,71.2c1.8,1.1,3.3,3.7,3.3,5.8c0,2.1-1.5,3-3.4,1.9c-1.8-1.1-3.3-3.6-3.3-5.8
				C152.3,71,153.8,70.1,155.6,71.2z"/>
			<path class="st38" d="M143.2,64c1.8,1.1,3.3,3.7,3.3,5.8c0,2.1-1.5,3-3.4,1.9c-1.9-1.1-3.3-3.6-3.3-5.8
				C139.8,63.8,141.3,62.9,143.2,64z"/>
		</g>
		<path class="st32" d="M173.5,143.2c0,4.1-2.9,5.7-6.4,3.7c-3.5-2-6.4-7-6.4-11.1c0-4.1,2.9-5.7,6.4-3.7
			C170.7,134.2,173.5,139.1,173.5,143.2z M162.8,142c1.1,1.9,2.6,3.6,4.3,4.5c1.7,1,3.2,1.1,4.3,0.4c1.1-0.6,1.8-2,1.8-3.9
			c0-1.9-0.7-4.1-1.8-6c-1.1-1.9-2.6-3.6-4.3-4.5c-1.7-1-3.2-1.1-4.3-0.4c-1.1,0.6-1.8,2-1.8,3.9C161,137.9,161.7,140.1,162.8,142"
			/>
		<path class="st32" d="M189.6,152.1c0,4.1-2.9,5.7-6.4,3.7c-3.5-2-6.4-7-6.4-11.1c0-4.1,2.9-5.7,6.4-3.7
			C186.7,143,189.6,148,189.6,152.1z M178.8,150.8c1.1,1.9,2.6,3.6,4.3,4.5c1.7,1,3.2,1.1,4.3,0.4c1.1-0.6,1.8-2,1.8-3.9
			c0-1.9-0.7-4.1-1.8-6c-1.1-1.9-2.6-3.6-4.3-4.5c-1.7-1-3.2-1.1-4.3-0.4c-1.1,0.6-1.8,2-1.8,3.9
			C177.1,146.8,177.7,148.9,178.8,150.8"/>
		<g>
			<path class="st39" d="M183.1,148c-0.4-0.3-0.8,0-0.8,0.5c0,0.4,0.3,1,0.6,1.3l0,0.7c0,0.1,0.1,0.2,0.2,0.3c0.1,0.1,0.2,0,0.2-0.1
				l0-0.7c0.4,0.1,0.6-0.1,0.6-0.5C184,148.9,183.6,148.2,183.1,148z M183.1,149.4c-0.3-0.1-0.5-0.5-0.5-0.8c0-0.3,0.2-0.4,0.5-0.3
				c0.3,0.1,0.5,0.5,0.5,0.8C183.6,149.5,183.4,149.6,183.1,149.4z"/>
			<path class="st39" d="M184.3,147.5l0-0.8c0-0.6-0.5-1.4-1-1.8l-0.2-0.1c-0.6-0.3-1-0.1-1,0.6l0,0.8c-0.6-0.3-1,0-1,0.6l0,2.5
				c0,0.6,0.5,1.4,1,1.8l2.2,1.3c0.6,0.3,1,0.1,1-0.6l0-2.5C185.3,148.7,184.9,147.9,184.3,147.5z M182.4,145.7
				c0-0.4,0.3-0.6,0.7-0.4l0.2,0.1c0.4,0.2,0.7,0.7,0.7,1.2l0,0.8l-1.6-0.9L182.4,145.7z M184.9,151.6c0,0.4-0.3,0.6-0.7,0.4
				l-2.2-1.3c-0.4-0.2-0.7-0.7-0.7-1.2l0-2.5c0-0.4,0.3-0.6,0.7-0.4l0.1,0.1l1.9,1.1l0.2,0.1c0.4,0.2,0.7,0.7,0.7,1.2L184.9,151.6z"
				/>
		</g>
		<g>
			<path class="st40" d="M199.2,158.4c-0.3-0.2-0.7-0.2-0.9-0.1c-0.1,0-0.1,0.2,0,0.3c0,0.1,0.1,0.1,0.1,0.1c0,0,0.1,0,0.1,0
				c0.2-0.1,0.4-0.1,0.7,0.1c0.2,0.1,0.5,0.4,0.7,0.7c0,0.1,0.1,0.1,0.1,0.1c0,0,0.1,0,0.1,0c0.1,0,0.1-0.2,0-0.3
				C199.9,159,199.6,158.6,199.2,158.4z"/>
			<path class="st40" d="M199.2,157.2c-0.6-0.3-1.2-0.4-1.7-0.2c-0.1,0-0.1,0.2,0,0.3c0,0.1,0.1,0.1,0.1,0.1c0,0,0.1,0,0.1,0
				c0.4-0.2,0.9-0.1,1.4,0.1c0.5,0.3,1,0.8,1.4,1.5c0,0.1,0.1,0.1,0.1,0.1c0,0,0.1,0,0.1,0c0.1,0,0.1-0.2,0-0.3
				C200.4,158.2,199.8,157.6,199.2,157.2z"/>
			<path class="st40" d="M199.2,156c-0.9-0.5-1.7-0.6-2.4-0.2c-0.1,0-0.1,0.2,0,0.3c0,0.1,0.1,0.1,0.1,0.1c0,0,0.1,0,0.1,0
				c0.6-0.3,1.4-0.2,2.1,0.2c0.8,0.4,1.5,1.2,2.1,2.3c0,0.1,0.1,0.1,0.1,0.1c0,0,0.1,0,0.1,0c0.1,0,0.1-0.2,0-0.3
				C201,157.4,200.1,156.5,199.2,156z"/>
			<path class="st40" d="M199.2,154.9c-1.1-0.7-2.3-0.8-3.1-0.3c-0.1,0-0.1,0.2,0,0.3c0,0.1,0.1,0.1,0.1,0.1c0,0,0.1,0,0.1,0
				c0.8-0.5,1.8-0.3,2.9,0.3c1,0.6,2.1,1.7,2.9,3c0,0.1,0.1,0.1,0.1,0.1c0,0,0.1,0,0.1,0c0.1,0,0.1-0.2,0-0.3
				C201.5,156.7,200.4,155.5,199.2,154.9z"/>
			<path class="st40" d="M199.2,159.5c-0.2-0.1-0.3,0-0.3,0.2c0,0.2,0.2,0.5,0.3,0.6c0.2,0.1,0.3,0,0.3-0.2
				C199.6,159.9,199.4,159.6,199.2,159.5z"/>
		</g>
		<path class="st32" d="M157.1,133.7c0,4.1-2.9,5.7-6.4,3.7c-3.5-2-6.4-7-6.4-11.1c0-4.1,2.9-5.7,6.4-3.7
			C154.3,124.7,157.1,129.7,157.1,133.7z M146.4,132.5c1.1,1.9,2.6,3.6,4.3,4.5c1.7,1,3.2,1.1,4.3,0.4c1.1-0.6,1.8-2,1.8-3.9
			c0-1.9-0.7-4.1-1.8-6c-1.1-1.9-2.6-3.6-4.3-4.5c-1.7-1-3.2-1.1-4.3-0.4c-1.1,0.6-1.8,2-1.8,3.9
			C144.6,128.5,145.3,130.6,146.4,132.5"/>
		<path class="st32" d="M205.7,161.4c0,4.1-2.9,5.7-6.4,3.7c-3.5-2-6.4-7-6.4-11.1c0-4.1,2.9-5.7,6.4-3.7
			C202.8,152.4,205.7,157.3,205.7,161.4z M194.9,160.1c1.1,1.9,2.6,3.6,4.3,4.5c1.7,1,3.2,1.1,4.3,0.4c1.1-0.6,1.8-2,1.8-3.9
			c0-1.9-0.7-4.1-1.8-6c-1.1-1.9-2.6-3.5-4.3-4.5c-1.7-1-3.2-1.1-4.3-0.4c-1.1,0.6-1.8,2-1.8,3.9
			C193.2,156.1,193.8,158.2,194.9,160.1"/>
		<g>
			<path class="st41" d="M147.7,124.6c0,0-0.1,0-0.1,0c-0.1,0-0.1,0.2,0,0.3l1,1.8c0,0.1,0.1,0.1,0.1,0.1c0,0,0.1,0,0.1,0
				c0.1,0,0.1-0.2,0-0.3l-1-1.8C147.7,124.7,147.7,124.6,147.7,124.6z"/>
			<path class="st41" d="M152.8,131.2c0,1.3-0.9,1.9-2.1,1.2c-1.2-0.7-2.1-2.3-2.1-3.6c0-1.3,0.9-1.9,2.1-1.2
				C151.8,128.3,152.8,129.9,152.8,131.2z M149.5,130.7c0.3,0.5,0.7,1,1.2,1.3c0.5,0.3,0.9,0.3,1.2,0.1c0.3-0.2,0.5-0.6,0.5-1.1
				c0-0.6-0.2-1.2-0.5-1.7c-0.3-0.5-0.8-1-1.2-1.3c-0.5-0.3-0.9-0.3-1.2-0.1c-0.3,0.2-0.5,0.6-0.5,1.1
				C148.9,129.6,149.1,130.2,149.5,130.7"/>
			<path class="st41" d="M150.7,124.9c-0.1-0.1-0.2,0-0.2,0.1l0,1.7c0,0.1,0.1,0.2,0.2,0.3c0.1,0.1,0.2,0,0.2-0.1l0-1.7
				C150.9,125.1,150.8,125,150.7,124.9z"/>
			<path class="st41" d="M153.7,128.1c0,0-0.1,0-0.1,0l-1,0.6c-0.1,0-0.1,0.2,0,0.3c0,0.1,0.1,0.1,0.1,0.1c0,0,0.1,0,0.1,0l1-0.6
				c0.1,0,0.1-0.2,0-0.3C153.8,128.2,153.8,128.1,153.7,128.1z"/>
			<path class="st41" d="M152.7,133.3c0,0-0.1,0-0.1,0c-0.1,0-0.1,0.2,0,0.3l1,1.8c0,0.1,0.1,0.1,0.1,0.1c0,0,0.1,0,0.1,0
				c0.1,0,0.1-0.2,0-0.3l-1-1.8C152.8,133.4,152.7,133.3,152.7,133.3z"/>
			<path class="st41" d="M146.4,127.4c-0.1-0.1-0.2,0-0.2,0.1c0,0.1,0.1,0.2,0.2,0.3l1.5,0.8c0.1,0.1,0.2,0,0.2-0.1
				c0-0.1-0.1-0.2-0.2-0.3L146.4,127.4z"/>
			<path class="st41" d="M153.5,131.5c-0.1-0.1-0.2,0-0.2,0.1c0,0.1,0.1,0.2,0.2,0.3l1.5,0.8c0.1,0.1,0.2,0,0.2-0.1
				c0-0.1-0.1-0.2-0.2-0.3L153.5,131.5z"/>
			<path class="st41" d="M150.7,133.1c-0.1-0.1-0.2,0-0.2,0.1l0,1.7c0,0.1,0.1,0.2,0.2,0.3c0.1,0.1,0.2,0,0.2-0.1l0-1.7
				C150.9,133.3,150.8,133.1,150.7,133.1z"/>
			<path class="st41" d="M148.7,131c0,0-0.1,0-0.1,0l-1,0.6c-0.1,0-0.1,0.2,0,0.3c0,0.1,0.1,0.1,0.1,0.1c0,0,0.1,0,0.1,0l1-0.6
				c0.1,0,0.1-0.2,0-0.3C148.8,131,148.7,131,148.7,131z"/>
		</g>
		<path class="st42" d="M164,139.6c0,0.5,0.4,1.1,0.8,1.4l4.7,2.7c0.4,0.3,0.8,0,0.8-0.5l0-3.8c0-0.1,0-0.2,0-0.3c0,0,0,0,0,0
			c-0.1-0.4-0.4-0.9-0.8-1.1l-4.7-2.7c-0.4-0.2-0.7-0.1-0.8,0.2c0,0,0,0,0,0c0,0.1,0,0.1,0,0.2L164,139.6z M169.9,139l-2.7,0.7
			l-2.7-3.8c0.1-0.1,0.2-0.1,0.4,0l4.7,2.7C169.7,138.6,169.9,138.8,169.9,139z M164.4,139.8l0-3.6l2.7,3.8c0,0,0.1,0.1,0.1,0.1
			c0,0,0.1,0,0.1,0l2.7-0.7l0,3.6c0,0.3-0.2,0.4-0.5,0.3l-4.7-2.7C164.6,140.4,164.4,140.1,164.4,139.8z"/>
		<g>
			
				<linearGradient id="SVGID_00000031891833518252409060000004078044135417137280_" gradientUnits="userSpaceOnUse" x1="253.4941" y1="172.4151" x2="299.9941" y2="172.4151">
				<stop  offset="0" style="stop-color:#FE38C0"/>
				<stop  offset="1" style="stop-color:#FE38C0;stop-opacity:0.3"/>
			</linearGradient>
			<polygon style="fill:url(#SVGID_00000031891833518252409060000004078044135417137280_);" points="253.5,160.7 300,187.5 
				300,184.2 253.5,157.3 			"/>
			
				<linearGradient id="SVGID_00000059306685170219610920000006970088787167377284_" gradientUnits="userSpaceOnUse" x1="253.4941" y1="180.5342" x2="299.9941" y2="180.5342">
				<stop  offset="0" style="stop-color:#FE38C0"/>
				<stop  offset="1" style="stop-color:#FE38C0;stop-opacity:0.3"/>
			</linearGradient>
			<polygon style="fill:url(#SVGID_00000059306685170219610920000006970088787167377284_);" points="253.5,168.8 300,195.6 
				300,192.3 253.5,165.5 			"/>
			
				<linearGradient id="SVGID_00000183955911095131886760000001265635347228918692_" gradientUnits="userSpaceOnUse" x1="253.4941" y1="188.6533" x2="299.9941" y2="188.6533">
				<stop  offset="0" style="stop-color:#FE38C0"/>
				<stop  offset="1" style="stop-color:#FE38C0;stop-opacity:0.3"/>
			</linearGradient>
			<polygon style="fill:url(#SVGID_00000183955911095131886760000001265635347228918692_);" points="253.5,176.9 300,203.7 
				300,200.4 253.5,173.6 			"/>
			
				<linearGradient id="SVGID_00000175324279816509156630000017658664574433010081_" gradientUnits="userSpaceOnUse" x1="253.4941" y1="196.7724" x2="299.9941" y2="196.7724">
				<stop  offset="0" style="stop-color:#FE38C0"/>
				<stop  offset="1" style="stop-color:#FE38C0;stop-opacity:0.3"/>
			</linearGradient>
			<polygon style="fill:url(#SVGID_00000175324279816509156630000017658664574433010081_);" points="253.5,185 300,211.9 300,208.5 
				253.5,181.7 			"/>
			
				<linearGradient id="SVGID_00000112622337218672410880000001486029359229056927_" gradientUnits="userSpaceOnUse" x1="253.4941" y1="204.8916" x2="299.9941" y2="204.8916">
				<stop  offset="0" style="stop-color:#FE38C0"/>
				<stop  offset="1" style="stop-color:#FE38C0;stop-opacity:0.3"/>
			</linearGradient>
			<polygon style="fill:url(#SVGID_00000112622337218672410880000001486029359229056927_);" points="253.5,193.1 300,220 300,216.7 
				253.5,189.8 			"/>
		</g>
	</g>
</g>
<g id="DESIGNED_BY_FREEPIK">
</g>
</svg>
